<svg width="523" height="573" viewBox="0 0 523 573" fill="none" xmlns="http://www.w3.org/2000/svg">
<path d="M279.828 571.825C275.596 568.752 263.869 559.697 264.697 553.55L270.064 545.063C270.064 545.063 254.767 514.564 249.069 510.001C247.509 502.507 243.608 470.023 243.608 470.023L224.836 438.744L225.285 425.126L231.432 402.666L240.818 391.271V380.443L232.544 369.946L234.671 362.9L224.505 330.511L203.842 304.93L212.566 275.779L200.84 264.384L182.753 265.944L168.568 248.638H148.567L118.849 262.492C118.849 262.492 100.408 256.133 83.8821 262.492L75.5128 266.63L31.1603 231.781L28.4887 220.173L4.58657 195.042L9.38591 187.996L0 178.847L9.2677 169.13L8.8185 119.434L39.6478 76.7602L67.2381 56.3098V44.7961L80.8559 27.9393L89.9109 26.2607L99.0603 12.9738C99.0603 12.9738 100.952 8.05626 107.548 16.4256L129.653 16.3073L152.657 6.70866L204.811 3.35148C204.811 3.35148 210.06 -3.45744 215.545 2.33487C215.545 2.33487 223.134 7.37064 222.472 15.1725C221.81 22.9744 219.8 29.2396 219.8 29.2396L232.094 37.8453H250.63L262.474 50.2337H275.43C275.43 50.2337 288.835 64.8682 292.074 51.5813L288.386 41.5335L303.021 34.2753L311.295 39.0747L337.444 47.8932L358.769 48.4606C358.769 48.4606 372.741 40.3041 382.789 47.7986C394.066 45.3398 398.535 49.028 398.535 49.028L403.121 59.5251L394.066 81.4177L409.977 107.495L409.528 115.084L420.687 128.938L422.484 147.474L435.889 161.99L441.705 181.211L465.82 202.654L462.014 209.345L472.298 218.731L488.824 210.693L512.726 208.021C512.726 208.021 524.783 196.413 522.774 212.489C520.764 228.566 497.761 268.332 497.761 268.332L483.457 283.297C483.457 283.297 463.125 297.364 456.647 308.547L437.875 330.653L432.272 346.942L436.622 354.247L432.272 359.78V369L441.327 380.892L437.473 389.947V417.419C437.473 417.419 432.958 432.337 416.03 435.671L393.924 455.435L393.428 489.787L377.02 498.157L372.339 519.931L328.436 563.149C328.436 563.149 294.486 562.44 282.594 571.755C281.814 572.369 280.702 572.346 279.875 571.755L279.828 571.825Z" fill="#F5A8C1"/>
<path d="M449.295 472.836C449.295 472.836 447.072 496.951 461.021 499.197C474.97 501.443 487.382 475.862 487.382 475.862L506.603 421.58L504.026 403.706L497.548 397.229C497.548 397.229 482.583 424.819 461.92 426.497L457.57 436.663L457.451 459.904L449.295 472.86V472.836Z" fill="#F5A8C1"/>
</svg>
