<svg width="312" height="195" viewBox="0 0 312 195" fill="none" xmlns="http://www.w3.org/2000/svg">
<g clip-path="url(#clip0_101_69)">
<path d="M34.1203 137.951C23.065 132.134 12.949 123.898 8.8467 112.323C4.64942 100.478 17.187 93.4364 26.8194 90.9046C39.7928 87.4923 52.9181 86.7575 66.3396 86.7256C68.1883 86.7213 69.123 83.9998 69.5343 82.5996C75.1128 63.6237 79.9809 44.1944 92.9675 29.0392C100.348 20.4217 110.78 17.2339 121.737 20.3565C136.506 24.5661 145.51 33.8401 153.855 35.6598C176.219 40.5352 204.711 26.559 229.888 46.8857C238.569 53.8996 241.363 64.0771 242.066 74.9739C243.016 89.6842 242.793 104.041 241.479 118.766C241.337 120.377 241.675 122.803 243.47 123.435C255.584 127.667 277.569 137.796 285.59 147.666C290.061 153.17 291.88 160.841 288.208 167.202C281.636 178.588 259.088 182.411 246.82 183.239C192.963 186.882 135.503 175.982 84.3903 159.255C66.9175 153.534 50.5403 146.587 34.1203 137.951Z" fill="#FBD236"/>
<path d="M123.299 133.736C110.542 130.053 59.1973 113.318 65.4817 94.8447L69.363 83.4296C73.3785 87.947 77.4576 91.4781 82.6986 94.5452C101.241 105.399 121.068 112.917 142.154 117.736C176.266 125.528 208.337 127.212 242.002 117.796C241.542 127.074 244.468 135.336 234.612 138.927C200.423 150.072 157.38 143.577 123.294 133.735L123.299 133.736Z" fill="#FEFEFE"/>
</g>
<defs>
<clipPath id="clip0_101_69">
<rect width="287.406" height="148.537" fill="white" transform="translate(29.9717) rotate(11.641)"/>
</clipPath>
</defs>
</svg>
