<svg width="301" height="176" viewBox="0 0 301 176" fill="none" xmlns="http://www.w3.org/2000/svg">
<g clip-path="url(#clip0_101_74)">
<path d="M44.5904 158.09C32.3123 155.787 20.2195 150.895 12.8904 141.041C5.39074 130.957 15.2987 120.536 23.7583 115.28C35.1515 108.198 47.4783 103.63 60.2952 99.6475C62.0606 99.0989 62.1524 96.2228 62.1331 94.7635C61.876 74.9863 60.8063 54.9851 68.7539 36.6774C73.269 26.2686 82.2994 20.1501 93.6903 19.9074C109.045 19.5807 120.38 25.7921 128.891 25.0735C151.699 23.1465 174.812 1.39937 204.858 13.4103C215.22 17.5564 220.887 26.4599 224.768 36.6665C230.007 50.4447 234.023 64.2307 237.103 78.6888C237.442 80.2712 238.479 82.4896 240.382 82.565C253.204 83.0418 277.197 86.2467 287.769 93.3168C293.662 97.2605 297.66 104.056 296.025 111.216C293.097 124.032 272.675 134.326 261.195 138.73C210.798 158.072 152.677 164.577 98.9049 163.645C80.5222 163.323 62.8255 161.507 44.5904 158.09Z" fill="#001480"/>
<path d="M128.574 127.799C115.298 128.036 61.3014 127.164 61.8669 107.659L62.2144 95.6071C67.3821 98.7415 72.3203 100.915 78.2321 102.302C99.1484 107.215 120.31 108.56 141.88 106.955C176.774 104.356 207.919 96.5204 237.318 77.608C239.611 86.6103 244.84 93.6443 236.479 99.9788C207.088 120.698 164.041 127.167 128.568 127.8L128.574 127.799Z" fill="#FEFEFE"/>
</g>
<defs>
<clipPath id="clip0_101_74">
<rect width="287.406" height="148.537" fill="white" transform="translate(0 27.4779) rotate(-5.48623)"/>
</clipPath>
</defs>
</svg>
