<?xml version="1.0" encoding="UTF-8"?>
<svg id="Calque_2" data-name="Calque 2" xmlns="http://www.w3.org/2000/svg" viewBox="0 0 329.63 329.64">
  <g id="_3_4" data-name="3/4">
    <path d="M168.82,21.71v.37c77.01,2.11,138.79,65.21,138.79,142.74,0,2.24-.05,4.47-.16,6.68h.08c.12-2.34.18-4.69.18-7.06,0-77.55-61.84-140.67-138.89-142.73ZM22.02,164.82c0,78.86,63.93,142.8,142.79,142.8,61.3,0,113.57-38.62,133.82-92.86,0,0-130.63-40.24-131.86-43.26l2.04-149.42c-1.33-.04-2.66-.06-4-.06-78.86,0-142.79,63.93-142.79,142.8Z" fill="#ddb147"/>
    <path d="M164.81,0C73.79,0,0,73.79,0,164.82s73.79,164.82,164.81,164.82,164.82-73.8,164.82-164.82S255.84,0,164.81,0ZM298.63,214.76c-20.25,54.24-72.52,92.86-133.82,92.86-78.86,0-142.79-63.94-142.79-142.8S85.95,22.02,164.81,22.02c1.34,0,2.67.02,4,.06v-.37c77.06,2.06,138.9,65.18,138.9,142.73,0,2.37-.06,4.72-.18,7.06h-.08c-.69,15.15-3.75,29.69-8.81,43.25h-.01Z" fill="#fbd236"/>
    <path d="M298.63,214.76c-20.25,54.24-72.52,92.86-133.82,92.86-78.86,0-142.79-63.94-142.79-142.8S85.95,22.02,164.81,22.02c1.34,0,2.67.02,4,.06l-2.04,149.42c1.23,3.02,131.86,43.26,131.86,43.26Z" fill="#ebebd3"/>
    <path d="M307.61,164.82c0,2.24-.05,4.47-.16,6.68-.69,15.15-3.75,29.69-8.81,43.25h-.01s-130.63-40.23-131.86-43.25l2.04-149.42c77.02,2.11,138.8,65.21,138.8,142.74Z" fill="#e6503c"/>
    <path d="M307.71,164.44c0,2.37-.06,4.72-.18,7.06h-.08c.11-2.21.16-4.44.16-6.68,0-77.53-61.78-140.63-138.8-142.74v-.37c77.06,2.06,138.9,65.18,138.9,142.73Z" fill="#312782"/>
    <line x1="165.07" y1="262.41" x2="164.56" y2="299.69" fill="none" stroke="#e6503c" stroke-miterlimit="10" stroke-width="4"/>
    <line x1="168.23" y1="31.72" x2="167.72" y2="69" fill="none" stroke="#fbd236" stroke-miterlimit="10" stroke-width="4"/>
    <line x1="168.49" y1="91.54" x2="167.39" y2="171.5" fill="none" stroke="#fbd236" stroke-miterlimit="10" stroke-width="4"/>
    <line x1="30" y1="171.5" x2="67.28" y2="171.5" fill="none" stroke="#e6503c" stroke-miterlimit="10" stroke-width="4"/>
    <line x1="262.86" y1="171.51" x2="300.14" y2="171.51" fill="none" stroke="#fbd236" stroke-miterlimit="10" stroke-width="4"/>
    <line x1="100.72" y1="238.81" x2="75.52" y2="266.27" fill="none" stroke="#e6503c" stroke-miterlimit="10" stroke-width="4"/>
    <line x1="255.06" y1="66.29" x2="229.85" y2="93.76" fill="none" stroke="#ddb147" stroke-miterlimit="10" stroke-width="4"/>
    <line x1="240.24" y1="230.87" x2="268.06" y2="255.69" fill="none" stroke="#e6503c" stroke-miterlimit="10" stroke-width="4"/>
    <line x1="66.54" y1="75.8" x2="94.35" y2="100.63" fill="none" stroke="#e6503c" stroke-miterlimit="10" stroke-width="4"/>
  </g>
</svg>