<svg width="114" height="106" viewBox="0 0 114 106" fill="none" xmlns="http://www.w3.org/2000/svg">
<path d="M22.8154 10.3622C22.8154 10.3622 39.1687 6.93698 47.2233 21.1544C47.2233 21.1544 50.0149 10.4913 53.3939 13.0128C56.7729 15.5342 53.6532 17.5393 53.6532 17.5393C53.6532 17.5393 50.2743 24.8454 51.4489 29.1061C51.4489 29.1061 47.0326 30.5946 47.5513 27.2985C47.5513 27.2985 26.3241 30.982 22.8154 10.3622Z" fill="#E6503C"/>
<path d="M17.7008 53.3356C17.9992 42.4871 23.4026 30.7261 34.2511 31.0245C38.1327 31.1313 42.6991 32.7226 45.9341 34.0922C48.5785 35.2036 51.5786 35.2862 54.2802 34.3218C57.571 33.1459 62.2326 31.7944 66.1141 31.9012C76.9627 32.1996 81.7111 44.2399 81.4127 55.0885C80.912 73.2878 69.1619 86.6244 57.7873 86.3114C55.4413 86.2469 52.3959 85.224 50.5091 84.5033C49.3684 84.0735 48.1172 84.0391 46.9545 84.4055C45.0309 85.0213 41.9339 85.8753 39.5879 85.8107C28.2133 85.4978 17.2143 71.5353 17.715 53.336L17.7008 53.3356Z" fill="#E6503C"/>
</svg>
