<svg width="113" height="70" viewBox="0 0 113 70" fill="none" xmlns="http://www.w3.org/2000/svg">
<path d="M59.7283 18.4624H104.158C104.158 18.4624 123.048 35.1424 104.158 53.3524L59.7283 52.1624L23.8183 69.1824C23.8183 69.1824 2.36825 76.1624 0.498252 46.3724C-1.37175 16.5824 1.00824 -6.73758 25.5182 1.77242L59.7283 18.4524V18.4624Z" fill="#E6503C"/>
<path d="M99.7282 49.2724C104.759 49.2724 108.838 43.0626 108.838 35.4024C108.838 27.7422 104.759 21.5324 99.7282 21.5324C94.6969 21.5324 90.6182 27.7422 90.6182 35.4024C90.6182 43.0626 94.6969 49.2724 99.7282 49.2724Z" fill="#312782"/>
<path d="M57.6882 38.3824V29.8824C57.6882 27.248 55.5526 25.1124 52.9182 25.1124L8.32823 25.1124C5.69383 25.1124 3.55823 27.248 3.55823 29.8824V38.3824C3.55823 41.0168 5.69383 43.1524 8.32823 43.1524H52.9182C55.5526 43.1524 57.6882 41.0168 57.6882 38.3824Z" fill="#312782"/>
</svg>
