<svg width="66" height="62" viewBox="0 0 66 62" fill="none" xmlns="http://www.w3.org/2000/svg">
<path d="M4.79333 7.33529V50.2253C4.79333 50.2253 4.66333 55.3353 6.96333 55.3353H57.5133C57.5133 55.3353 60.7033 54.6953 60.8333 51.7653C60.9633 48.8353 60.8333 7.33529 60.8333 7.33529C60.8333 7.33529 59.8133 0.185294 52.0233 0.0552945C44.2333 -0.0747055 11.9433 0.0652945 11.9433 0.0652945C11.9433 0.0652945 5.94333 1.59529 4.79333 7.34529V7.33529Z" fill="#E6503C"/>
<path d="M11.5532 49.8053C13.2101 49.8053 14.5532 48.4622 14.5532 46.8053C14.5532 45.1484 13.2101 43.8053 11.5532 43.8053C9.89637 43.8053 8.55322 45.1484 8.55322 46.8053C8.55322 48.4622 9.89637 49.8053 11.5532 49.8053Z" fill="#001480"/>
<path d="M53.9634 49.8053C55.6202 49.8053 56.9634 48.4622 56.9634 46.8053C56.9634 45.1484 55.6202 43.8053 53.9634 43.8053C52.3065 43.8053 50.9634 45.1484 50.9634 46.8053C50.9634 48.4622 52.3065 49.8053 53.9634 49.8053Z" fill="#001480"/>
<path d="M60.8931 14.0153C60.8931 14.0153 65.6831 11.4653 65.6031 16.9953C65.5231 22.5253 66.9031 27.9553 60.8931 27.6653V14.0153Z" fill="#E6503C"/>
<path d="M4.79325 14.0153C4.79325 14.0153 0.00325021 11.4653 0.0832502 16.9953C0.16325 22.5253 -1.21675 27.9553 4.79325 27.6653V14.0153Z" fill="#E6503C"/>
<path d="M50.0334 55.3353C50.0334 55.3353 48.5834 61.6153 53.7134 61.4853C58.8434 61.3553 57.1834 55.3353 57.1834 55.3353H50.0334Z" fill="#E6503C"/>
<path d="M7.94302 55.3353C7.94302 55.3353 6.49302 61.6153 11.623 61.4853C16.753 61.3553 15.093 55.3353 15.093 55.3353H7.94302Z" fill="#E6503C"/>
<path d="M44.593 45.6353H20.853V47.5453H44.593V45.6353Z" fill="#D9D9D9"/>
<path d="M41.9934 4.7453H23.6934V6.7853H41.9934V4.7453Z" fill="#D9D9D9"/>
</svg>
