<svg width="352" height="270" viewBox="0 0 352 270" fill="none" xmlns="http://www.w3.org/2000/svg">
<circle cx="12" cy="258" r="12" fill="white"/>
<circle cx="40" cy="230" r="12" fill="white"/>
<circle cx="66" cy="204" r="12" fill="white"/>
<ellipse cx="12" cy="11" rx="12" ry="11" transform="matrix(-1 0 0 1 352 190)" fill="white"/>
<circle cx="66" cy="176" r="12" fill="white"/>
<circle cx="12" cy="12" r="12" transform="matrix(-1 0 0 1 352 162)" fill="white"/>
<circle cx="66" cy="148" r="12" fill="white"/>
<ellipse cx="12" cy="11" rx="12" ry="11" transform="matrix(-1 0 0 1 352 136)" fill="white"/>
<circle cx="66" cy="120" r="12" fill="white"/>
<ellipse cx="12" cy="11" rx="12" ry="11" transform="matrix(-1 0 0 1 352 108)" fill="white"/>
<circle cx="66" cy="92" r="12" fill="white"/>
<circle cx="12" cy="12" r="12" transform="matrix(-1 0 0 1 352 80)" fill="white"/>
<circle cx="66" cy="64" r="12" fill="white"/>
<ellipse cx="12" cy="11" rx="12" ry="11" transform="matrix(-1 0 0 1 352 54)" fill="white"/>
<circle cx="94" cy="64" r="12" fill="white"/>
<ellipse cx="12" cy="11" rx="12" ry="11" transform="matrix(-1 0 0 1 324 54)" fill="white"/>
<circle cx="94" cy="92" r="12" fill="white"/>
<circle cx="12" cy="12" r="12" transform="matrix(-1 0 0 1 324 80)" fill="white"/>
<circle cx="94" cy="120" r="12" fill="white"/>
<ellipse cx="12" cy="11" rx="12" ry="11" transform="matrix(-1 0 0 1 324 108)" fill="white"/>
<circle cx="94" cy="148" r="12" fill="white"/>
<ellipse cx="12" cy="11" rx="12" ry="11" transform="matrix(-1 0 0 1 324 136)" fill="white"/>
<circle cx="94" cy="176" r="12" fill="white"/>
<circle cx="12" cy="12" r="12" transform="matrix(-1 0 0 1 324 162)" fill="white"/>
<circle cx="94" cy="204" r="12" fill="white"/>
<ellipse cx="12" cy="11" rx="12" ry="11" transform="matrix(-1 0 0 1 324 190)" fill="white"/>
<circle cx="94" cy="230" r="12" fill="white"/>
<circle cx="12" cy="12" r="12" transform="matrix(-1 0 0 1 324 214)" fill="white"/>
<circle cx="122" cy="230" r="12" fill="white"/>
<circle cx="12" cy="12" r="12" transform="matrix(-1 0 0 1 296 214)" fill="white"/>
<circle cx="12" cy="12" r="12" transform="matrix(-1 0 0 1 162 214)" fill="white"/>
<circle cx="12" cy="12" r="12" transform="matrix(-1 0 0 1 188 214)" fill="white"/>
<circle cx="12" cy="12" r="12" transform="matrix(-1 0 0 1 214 214)" fill="white"/>
<circle cx="12" cy="12" r="12" transform="matrix(-1 0 0 1 242 214)" fill="white"/>
<circle cx="12" cy="12" r="12" transform="matrix(-1 0 0 1 268 214)" fill="white"/>
<circle cx="122" cy="258" r="12" fill="white"/>
<circle cx="12" cy="12" r="12" transform="matrix(-1 0 0 1 296 242)" fill="white"/>
<circle cx="12" cy="12" r="12" transform="matrix(-1 0 0 1 162 242)" fill="white"/>
<circle cx="12" cy="12" r="12" transform="matrix(-1 0 0 1 188 242)" fill="white"/>
<circle cx="12" cy="12" r="12" transform="matrix(-1 0 0 1 214 242)" fill="white"/>
<circle cx="12" cy="12" r="12" transform="matrix(-1 0 0 1 242 242)" fill="white"/>
<circle cx="12" cy="12" r="12" transform="matrix(-1 0 0 1 268 242)" fill="white"/>
<circle cx="122" cy="204" r="12" fill="white"/>
<ellipse cx="12" cy="11" rx="12" ry="11" transform="matrix(-1 0 0 1 296 190)" fill="white"/>
<ellipse cx="12" cy="11" rx="12" ry="11" transform="matrix(-1 0 0 1 162 190)" fill="white"/>
<ellipse cx="12" cy="11" rx="12" ry="11" transform="matrix(-1 0 0 1 188 190)" fill="white"/>
<ellipse cx="12" cy="11" rx="12" ry="11" transform="matrix(-1 0 0 1 214 190)" fill="white"/>
<ellipse cx="12" cy="11" rx="12" ry="11" transform="matrix(-1 0 0 1 242 190)" fill="white"/>
<ellipse cx="12" cy="11" rx="12" ry="11" transform="matrix(-1 0 0 1 268 190)" fill="white"/>
<circle cx="122" cy="176" r="12" fill="white"/>
<circle cx="12" cy="12" r="12" transform="matrix(-1 0 0 1 296 162)" fill="white"/>
<circle cx="12" cy="12" r="12" transform="matrix(-1 0 0 1 162 162)" fill="white"/>
<circle cx="12" cy="12" r="12" transform="matrix(-1 0 0 1 188 162)" fill="white"/>
<circle cx="12" cy="12" r="12" transform="matrix(-1 0 0 1 214 162)" fill="white"/>
<circle cx="12" cy="12" r="12" transform="matrix(-1 0 0 1 242 162)" fill="white"/>
<circle cx="12" cy="12" r="12" transform="matrix(-1 0 0 1 268 162)" fill="white"/>
<circle cx="122" cy="148" r="12" fill="white"/>
<ellipse cx="12" cy="11" rx="12" ry="11" transform="matrix(-1 0 0 1 296 136)" fill="white"/>
<ellipse cx="12" cy="11" rx="12" ry="11" transform="matrix(-1 0 0 1 162 136)" fill="white"/>
<ellipse cx="12" cy="11" rx="12" ry="11" transform="matrix(-1 0 0 1 188 136)" fill="white"/>
<ellipse cx="12" cy="11" rx="12" ry="11" transform="matrix(-1 0 0 1 214 136)" fill="white"/>
<ellipse cx="12" cy="11" rx="12" ry="11" transform="matrix(-1 0 0 1 242 136)" fill="white"/>
<ellipse cx="12" cy="11" rx="12" ry="11" transform="matrix(-1 0 0 1 268 136)" fill="white"/>
<circle cx="122" cy="120" r="12" fill="white"/>
<ellipse cx="12" cy="11" rx="12" ry="11" transform="matrix(-1 0 0 1 296 108)" fill="white"/>
<ellipse cx="12" cy="11" rx="12" ry="11" transform="matrix(-1 0 0 1 162 108)" fill="white"/>
<ellipse cx="12" cy="11" rx="12" ry="11" transform="matrix(-1 0 0 1 188 108)" fill="white"/>
<ellipse cx="12" cy="11" rx="12" ry="11" transform="matrix(-1 0 0 1 214 108)" fill="white"/>
<ellipse cx="12" cy="11" rx="12" ry="11" transform="matrix(-1 0 0 1 242 108)" fill="white"/>
<ellipse cx="12" cy="11" rx="12" ry="11" transform="matrix(-1 0 0 1 268 108)" fill="white"/>
<circle cx="122" cy="92" r="12" fill="white"/>
<circle cx="12" cy="12" r="12" transform="matrix(-1 0 0 1 296 80)" fill="white"/>
<circle cx="12" cy="12" r="12" transform="matrix(-1 0 0 1 162 80)" fill="white"/>
<circle cx="12" cy="12" r="12" transform="matrix(-1 0 0 1 188 80)" fill="white"/>
<circle cx="12" cy="12" r="12" transform="matrix(-1 0 0 1 214 80)" fill="white"/>
<circle cx="12" cy="12" r="12" transform="matrix(-1 0 0 1 242 80)" fill="white"/>
<circle cx="12" cy="12" r="12" transform="matrix(-1 0 0 1 268 80)" fill="white"/>
<circle cx="122" cy="64" r="12" fill="white"/>
<ellipse cx="12" cy="11" rx="12" ry="11" transform="matrix(-1 0 0 1 296 54)" fill="white"/>
<ellipse cx="12" cy="11" rx="12" ry="11" transform="matrix(-1 0 0 1 162 54)" fill="white"/>
<ellipse cx="12" cy="11" rx="12" ry="11" transform="matrix(-1 0 0 1 188 54)" fill="white"/>
<ellipse cx="12" cy="11" rx="12" ry="11" transform="matrix(-1 0 0 1 214 54)" fill="white"/>
<ellipse cx="12" cy="11" rx="12" ry="11" transform="matrix(-1 0 0 1 242 54)" fill="white"/>
<ellipse cx="12" cy="11" rx="12" ry="11" transform="matrix(-1 0 0 1 268 54)" fill="white"/>
<circle cx="122" cy="38" r="12" fill="white"/>
<circle cx="12" cy="12" r="12" transform="matrix(-1 0 0 1 296 28)" fill="white"/>
<circle cx="12" cy="12" r="12" transform="matrix(-1 0 0 1 162 28)" fill="white"/>
<circle cx="12" cy="12" r="12" transform="matrix(-1 0 0 1 188 28)" fill="white"/>
<circle cx="12" cy="12" r="12" transform="matrix(-1 0 0 1 214 28)" fill="white"/>
<circle cx="12" cy="12" r="12" transform="matrix(-1 0 0 1 242 28)" fill="white"/>
<circle cx="12" cy="12" r="12" transform="matrix(-1 0 0 1 268 28)" fill="white"/>
<circle cx="94" cy="38" r="12" fill="white"/>
<circle cx="12" cy="12" r="12" transform="matrix(-1 0 0 1 324 28)" fill="white"/>
<circle cx="122" cy="12" r="12" fill="white"/>
<circle cx="12" cy="12" r="12" transform="matrix(-1 0 0 1 296 2)" fill="white"/>
<circle cx="12" cy="12" r="12" transform="matrix(-1 0 0 1 162 2)" fill="white"/>
<circle cx="12" cy="12" r="12" transform="matrix(-1 0 0 1 188 2)" fill="white"/>
<circle cx="12" cy="12" r="12" transform="matrix(-1 0 0 1 214 2)" fill="white"/>
<circle cx="12" cy="12" r="12" transform="matrix(-1 0 0 1 242 2)" fill="white"/>
<circle cx="12" cy="12" r="12" transform="matrix(-1 0 0 1 268 2)" fill="white"/>
</svg>
