<svg width="149" height="149" viewBox="0 0 149 149" fill="none" xmlns="http://www.w3.org/2000/svg">
<path d="M148.062 74.0309C148.062 114.917 114.917 148.062 74.0308 148.062C33.1447 148.062 0 114.917 0 74.0309C0 33.1448 33.1447 6.10352e-05 74.0308 6.10352e-05C114.917 6.10352e-05 148.062 33.1448 148.062 74.0309Z" fill="#FBD236"/>
<path d="M77.7335 110.378C64.7735 110.378 55.9415 102.122 53.6375 88.106H47.1095C44.9975 88.106 44.2295 87.242 44.2295 85.802V85.322C44.2295 83.786 44.9975 83.018 47.1095 83.018H53.0615V79.658V76.49V73.13H47.1095C44.9975 73.13 44.2295 72.266 44.2295 70.826V70.25C44.2295 68.81 44.9975 67.946 47.1095 67.946H53.7335C56.1335 54.602 65.0615 46.154 77.3495 46.154C83.9735 46.154 88.8695 48.362 91.9415 51.05C94.9175 53.45 96.3575 56.234 96.3575 58.346C96.3575 61.13 92.9975 62.09 92.7095 61.802C90.0215 56.234 85.6055 51.722 77.1575 51.722C68.4215 51.722 62.0855 57.962 60.0695 67.946H80.5175C82.5335 67.946 83.2055 68.81 83.2055 70.25V70.826C83.2055 72.266 82.5335 73.13 80.5175 73.13H59.3975C59.3015 74.186 59.3015 75.338 59.3015 76.49V79.754C59.3015 80.81 59.3015 81.866 59.3975 83.018H80.5175C82.5335 83.018 83.2055 83.786 83.2055 85.322V85.802C83.2055 87.242 82.5335 88.106 80.5175 88.106H60.0695C62.0855 98.186 68.4215 104.714 77.6375 104.714C86.0855 104.714 90.5015 100.202 93.0935 94.058C93.3815 93.674 96.8375 94.634 96.8375 97.61C96.8375 99.626 95.4935 102.41 92.9015 104.714C89.6375 107.882 84.4535 110.378 77.7335 110.378Z" fill="#E6503C"/>
</svg>
