<svg width="202" height="191" viewBox="0 0 202 191" fill="none" xmlns="http://www.w3.org/2000/svg">
<path d="M124.357 5.1599C125.862 6.52213 127.408 8.00453 128.669 9.80748C133.143 16.2179 135.584 23.3095 139.732 29.6799C140.221 30.4412 140.912 30.8018 141.075 32.0037C142.417 32.2041 142.865 31.0422 143.841 31.523L143.515 30.922L145.63 30.5614C145.183 29.3594 147.013 29.6799 147.868 29.3193C150.756 28.1174 153.684 26.3545 156.694 25.3128L157.305 25.6734C156.938 27.1959 156.898 28.8786 156.613 30.4011C154.01 44.6644 150.43 58.8075 146.2 72.59C145.793 73.9522 145.671 75.4346 145.061 76.7568L132.248 72.9907C124.032 70.5867 116.018 68.1428 107.883 64.8574C107.558 64.7372 107.07 64.8574 106.744 64.6971C105.687 64.1763 106.459 64.2564 104.67 63.6554C103.083 63.1346 101.538 61.9326 99.992 61.3316C97.3481 60.2498 94.216 59.3684 91.5314 58.3668C91.45 57.9261 91.6941 57.7257 91.9788 57.4453C93.9313 55.5221 97.9989 54.4404 100.399 52.9179L100.155 52.397L106.215 49.312L99.3412 36.6513L75.0983 77.6382C73.6339 78.119 70.4205 75.3145 69.0782 74.5933C60.0075 69.545 50.652 65.1378 41.9067 59.4485C41.0931 58.9277 39.6288 59.0078 40.1169 57.6456C40.2389 57.285 40.8084 57.285 40.9304 57.0847C41.1745 56.7642 41.1745 55.8426 41.5812 55.1615C43.1676 52.4771 45.5675 49.8328 47.2759 47.1885C55.6145 34.2474 62.4074 20.3848 72.251 8.48534C74.6102 5.60063 77.0101 2.43546 80.7522 1.47389C83.9657 0.632518 90.3111 0.311988 93.8093 0.151726C99.2192 -0.0486011 103.653 0.632494 108.819 1.07321C115.652 1.67419 118.947 0.352061 124.398 5.19998L124.357 5.1599Z" fill="#E6503C"/>
<path d="M63.6274 132.528C63.18 132.968 59.4785 130.965 58.7463 130.564C57.8107 130.084 56.6311 129.443 55.7769 128.962C53.3364 127.6 50.8958 125.676 48.3332 124.354L41.2963 136.414C42.4759 135.252 43.8995 135.853 45.1198 135.773C53.3364 135.092 61.6343 136.174 69.9322 136.134C73.7151 136.134 77.5793 135.933 81.2808 135.773C84.1281 135.653 86.65 135.092 89.3753 136.574C89.5787 136.775 89.9855 140.38 89.9855 141.102C90.3922 149.876 90.3109 159.091 90.2702 167.945C90.2702 170.55 90.677 173.034 90.2702 175.638C88.8872 175.478 87.4636 175.919 86.1619 175.959C85.6331 175.959 85.1043 175.638 84.6162 175.638C67.0442 175.558 49.3908 175.718 31.6561 174.757C22.9921 174.276 20.1854 172.192 15.7111 165.421C11.196 158.65 5.05394 149.916 1.75919 142.664C-3.12194 132.047 3.22353 125.636 7.81992 116.542C10.952 112.495 13.7993 108.008 15.589 103.24C14.4908 103.44 14.084 102.438 13.7586 102.238C10.1791 100.315 4.60651 97.3101 1.67784 94.5055C1.3931 94.2251 1.10837 94.1049 1.2304 93.6241C4.68786 92.5824 8.10465 90.8596 11.4808 89.6977C22.7073 85.7713 34.6661 82.8866 45.73 79.7615C45.974 79.6813 45.9333 79.2807 46.1774 79.2006C46.9096 79.0002 51.2619 78.1589 51.75 78.3993C52.6856 78.84 53.7431 83.4876 53.9872 84.6495C56.7532 96.7893 58.7056 108.929 61.0241 121.149C61.7563 124.955 63.18 128.681 63.7088 132.528H63.6274Z" fill="#E6503C"/>
<path d="M186.022 156.247C183.825 159.612 177.277 170.029 174.267 172.033C170.85 174.316 163.528 174.997 159.46 174.837C153.644 174.597 148.153 173.355 142.173 173.395C141.482 173.395 137.007 173.635 136.845 173.876C136.641 175.799 136.967 177.762 136.763 179.685C136.723 180.326 136.275 180.887 136.194 181.528C135.909 184.413 135.95 187.378 135.543 190.262C135.502 190.703 135.706 190.783 135.096 190.703C134.485 190.583 128.343 184.573 127.286 183.612C122.323 179.124 117.605 174.557 112.886 169.749C108.575 165.342 103.694 160.494 99.7074 155.566C98.5278 154.123 96.9008 153.883 98.4871 151.639C101.334 147.593 109.307 141.663 113.497 138.698C118.947 134.812 124.642 131.206 129.97 127.199C132.004 125.677 133.713 123.834 135.746 122.271C136.479 121.71 140.465 118.906 140.994 118.786C141.319 118.706 141.604 118.906 141.929 118.986C141.685 124.395 141.807 129.884 140.75 135.253L155.434 135.854C154.701 134.331 153.766 132.969 153.034 131.446C149.129 123.433 143.963 116.221 140.18 108.529C139.163 106.486 138.553 103.801 137.617 101.718C136.356 98.8732 134.77 95.9083 133.102 93.3441C134.526 92.2624 136.316 91.7816 137.862 90.9402C146.648 85.9721 154.132 81.6851 163.487 77.5984C164.301 77.2378 168.084 74.9541 168.491 74.9541C168.775 74.9541 168.938 75.0342 169.101 75.2746C171.094 79.3613 173.128 83.3679 175.08 87.4545C178.049 93.6647 180.612 100.235 183.581 106.526C187.161 114.098 191.635 121.23 194.564 129.163C195.093 130.645 196.557 134.171 196.72 135.493C197.004 137.656 194.361 142.905 193.222 144.908C191.147 148.594 188.259 152.681 185.941 156.287L186.022 156.247Z" fill="#E6503C"/>
<path d="M45.8111 132.047L16.8091 172.874" stroke="#E6503C" stroke-width="0.1" stroke-miterlimit="10"/>
<path d="M201.926 145.388L152.627 134.25" stroke="#E6503C" stroke-width="0.1" stroke-miterlimit="10"/>
<path d="M98.8943 38.8952C92.3861 31.1626 66.2314 0.0317383 66.2314 0.0317383" stroke="#E6503C" stroke-width="0.1" stroke-miterlimit="10"/>
</svg>
